<svg width="54" height="55" viewBox="0 0 54 55" fill="none" xmlns="http://www.w3.org/2000/svg">
<g clip-path="url(#clip0_4366_153)">
<path d="M21.7513 49.9473L19.6025 49.9345C19.6077 49.8347 19.6769 35.9871 19.691 35.8959C19.7422 35.381 19.4211 34.9032 18.9277 34.7597C14.5784 33.4957 12.183 30.4147 12.183 26.0843V22.4477C12.1527 20.5931 13.7855 18.9219 15.6508 18.9966C17.4862 19.0321 18.9804 20.5564 18.9804 22.3945V26.0843C18.9804 27.3031 19.972 28.2946 21.1908 28.2946H21.78C19.5533 24.3894 22.493 19.3812 26.9969 19.4213C31.5002 19.381 34.4408 24.3901 32.2136 28.2946H32.8028C34.0216 28.2946 35.0132 27.3031 35.0132 26.0843V22.3945C35.0132 20.5564 36.5073 19.0321 38.3439 18.9966C40.2065 18.9218 41.8418 20.5932 41.8105 22.4477V26.0843C41.8105 30.3891 39.4123 33.4676 35.0578 34.7528C34.5689 34.8969 34.2514 35.3736 34.3024 35.8865C34.3166 35.9782 34.3857 49.8345 34.3909 49.9345L32.2422 49.9473L32.1592 36.0445C32.034 34.5264 32.9899 33.1222 34.45 32.6919C36.8274 31.9902 39.6617 30.2742 39.6617 26.0843V22.4477C39.6617 22.0953 39.5157 21.7502 39.2612 21.5007C38.4863 20.7208 37.1575 21.3186 37.1619 22.3945V26.0843C37.1619 28.4879 35.2063 30.4434 32.8028 30.4434H29.8554C29.389 30.4434 28.976 30.1425 28.8329 29.6987C28.6898 29.2549 28.8493 28.7694 29.2279 28.497C32.2182 26.3364 30.6892 21.5801 26.9968 21.5701C23.3042 21.5808 21.7753 26.3361 24.7658 28.497C25.1443 28.7694 25.3039 29.2548 25.1607 29.6987C25.0176 30.1425 24.6046 30.4434 24.1382 30.4434H21.1908C18.7872 30.4434 16.8316 28.4879 16.8316 26.0843V22.3945C16.84 21.3207 15.503 20.7202 14.7323 21.5007C14.4778 21.7501 14.3318 22.0952 14.3318 22.4477V26.0843C14.3318 29.4698 16.0799 31.6944 19.5275 32.6963C20.9971 33.1236 21.9597 34.5298 21.8343 36.0532L21.7513 49.9473Z" fill="#002226"/>
<path d="M35.7335 51.7107C34.7927 51.7146 33.9044 51.4555 33.0495 51.0055C31.686 50.3521 28.4091 48.774 28.3919 48.767C27.5051 48.3412 26.4875 48.3412 25.6004 48.7672C25.544 48.7944 24.9024 49.1028 24.0962 49.49C23.0989 49.9692 21.8494 50.5696 21.1421 50.9097C17.9432 52.7752 13.9461 51.2109 13.042 47.6101L11.6805 42.024C11.4518 41.0859 10.8211 40.3067 9.9502 39.8862L5.02979 37.5115C2.03064 36.1276 1.03529 32.08 3.05998 29.4651C3.05988 29.4651 6.57658 24.751 6.57658 24.751C7.13076 24.0088 7.33811 23.0632 7.1458 22.1563L5.99955 16.7555C5.6703 15.205 6.0392 13.5977 7.0118 12.346C7.9843 11.0943 9.45042 10.3396 11.0342 10.2755L16.891 10.0369C17.7843 10.0005 18.6298 9.58937 19.2105 8.9092L22.9123 4.57149C24.9701 2.08003 29.0223 2.07544 31.0808 4.57149C31.0808 4.57139 34.7828 8.9093 34.7828 8.9093C35.3634 9.58937 36.2088 10.0004 37.1023 10.0369L42.9593 10.2755C46.2132 10.3537 48.7251 13.5801 47.9936 16.7557C47.9937 16.7557 46.8473 22.1565 46.8473 22.1565C46.655 23.0633 46.8623 24.0089 47.4162 24.7508L50.9332 29.4653C51.8953 30.7546 52.2275 32.3903 51.845 33.953C51.4623 35.5156 50.412 36.8127 48.9631 37.5117L44.0427 39.8864C43.1718 40.3068 42.5411 41.086 42.3124 42.0241L40.9508 47.6104C40.4162 49.9739 38.1435 51.741 35.7335 51.7107ZM26.997 46.298C27.7906 46.298 28.5835 46.4753 29.3225 46.8302C29.3284 46.8616 32.6253 48.3971 33.9814 49.0694C34.9607 49.6215 36.0861 49.7434 37.1116 49.2499C37.9938 48.8325 38.6322 48.0495 38.8631 47.1017L40.2247 41.5152C40.606 39.9508 41.6572 38.6518 43.1086 37.9512L48.0291 35.5764C48.0291 35.5764 48.0292 35.5764 48.0292 35.5763C49.8271 34.7453 50.4259 32.3195 49.2107 30.75L45.694 26.0358C44.7704 24.7988 44.4244 23.2221 44.7452 21.7104L45.8915 16.3092C46.3277 14.4063 44.8267 12.4681 42.8719 12.4224C33.5398 11.9812 35.5228 13.0449 29.4463 5.96611C28.8336 5.24834 27.9407 4.83666 26.9965 4.83666C26.0523 4.83666 25.1594 5.24834 24.5467 5.96621L20.8448 10.304C19.8769 11.4378 18.4678 12.1229 16.9786 12.1837L11.1214 12.4223C10.1712 12.4608 9.2919 12.9134 8.70852 13.6642C8.12514 14.4149 7.90382 15.379 8.1014 16.3091L9.24775 21.7102C9.5685 23.222 9.22256 24.7987 8.2987 26.0361L4.78229 30.7498C3.57099 32.316 4.1616 34.7467 5.9638 35.5761L10.8844 37.9509C12.3358 38.6515 13.3869 39.9506 13.7683 41.5149L15.1299 47.1012C15.5694 49.0544 17.862 50.1444 19.6543 49.2415C20.5783 48.7953 21.9521 48.1367 23.1899 47.5415C24.972 46.7143 25.3317 46.3543 26.997 46.298ZM19.6541 49.2417C19.6542 49.2417 19.6541 49.2418 19.6541 49.2417Z" fill="#009AAD"/>
</g>
<defs>
<clipPath id="clip0_4366_153">
<rect width="50" height="50" fill="white" transform="translate(2 2.20703)"/>
</clipPath>
</defs>
</svg>
