<svg width="54" height="55" viewBox="0 0 54 55" fill="none" xmlns="http://www.w3.org/2000/svg">
<g clip-path="url(#clip0_4366_63)">
<path d="M32 17.207H22C21.337 17.207 20.7011 17.4704 20.2322 17.9393C19.7634 18.4081 19.5 19.044 19.5 19.707V21.3737C19.5 21.5947 19.5878 21.8067 19.7441 21.963C19.9004 22.1192 20.1123 22.207 20.3333 22.207C20.5543 22.207 20.7663 22.1192 20.9226 21.963C21.0789 21.8067 21.1667 21.5947 21.1667 21.3737V19.707C21.1667 19.486 21.2545 19.2741 21.4107 19.1178C21.567 18.9615 21.779 18.8737 22 18.8737H32C32.221 18.8737 32.433 18.9615 32.5893 19.1178C32.7455 19.2741 32.8333 19.486 32.8333 19.707V34.707C32.8333 34.928 32.7455 35.14 32.5893 35.2963C32.433 35.4526 32.221 35.5404 32 35.5404H22C21.779 35.5404 21.567 35.4526 21.4107 35.2963C21.2545 35.14 21.1667 34.928 21.1667 34.707V25.5404C21.1667 25.3194 21.0789 25.1074 20.9226 24.9511C20.7663 24.7948 20.5543 24.707 20.3333 24.707C20.1123 24.707 19.9004 24.7948 19.7441 24.9511C19.5878 25.1074 19.5 25.3194 19.5 25.5404V34.707C19.5 35.3701 19.7634 36.006 20.2322 36.4748C20.7011 36.9436 21.337 37.207 22 37.207H32C32.663 37.207 33.2989 36.9436 33.7678 36.4748C34.2366 36.006 34.5 35.3701 34.5 34.707V19.707C34.5 19.044 34.2366 18.4081 33.7678 17.9393C33.2989 17.4704 32.663 17.207 32 17.207Z" fill="#009AAD"/>
<path d="M23.6663 23.0397H30.333C30.554 23.0397 30.766 22.9519 30.9223 22.7956C31.0785 22.6394 31.1663 22.4274 31.1663 22.2064C31.1663 21.9854 31.0785 21.7734 30.9223 21.6171C30.766 21.4608 30.554 21.373 30.333 21.373H23.6663C23.4453 21.373 23.2334 21.4608 23.0771 21.6171C22.9208 21.7734 22.833 21.9854 22.833 22.2064C22.833 22.4274 22.9208 22.6394 23.0771 22.7956C23.2334 22.9519 23.4453 23.0397 23.6663 23.0397Z" fill="#009AAD"/>
<path d="M23.6663 26.3737H30.333C30.554 26.3737 30.766 26.2859 30.9223 26.1296C31.0785 25.9733 31.1663 25.7614 31.1663 25.5404C31.1663 25.3194 31.0785 25.1074 30.9223 24.9511C30.766 24.7948 30.554 24.707 30.333 24.707H23.6663C23.4453 24.707 23.2334 24.7948 23.0771 24.9511C22.9208 25.1074 22.833 25.3194 22.833 25.5404C22.833 25.7614 22.9208 25.9733 23.0771 26.1296C23.2334 26.2859 23.4453 26.3737 23.6663 26.3737Z" fill="#009AAD"/>
<path d="M23.6663 29.7077H30.333C30.554 29.7077 30.766 29.6199 30.9223 29.4636C31.0785 29.3073 31.1663 29.0954 31.1663 28.8743C31.1663 28.6533 31.0785 28.4414 30.9223 28.2851C30.766 28.1288 30.554 28.041 30.333 28.041H23.6663C23.4453 28.041 23.2334 28.1288 23.0771 28.2851C22.9208 28.4414 22.833 28.6533 22.833 28.8743C22.833 29.0954 22.9208 29.3073 23.0771 29.4636C23.2334 29.6199 23.4453 29.7077 23.6663 29.7077Z" fill="#009AAD"/>
<path d="M23.6663 33.0397H30.333C30.554 33.0397 30.766 32.9519 30.9223 32.7956C31.0785 32.6394 31.1663 32.4274 31.1663 32.2064C31.1663 31.9854 31.0785 31.7734 30.9223 31.6171C30.766 31.4608 30.554 31.373 30.333 31.373H23.6663C23.4453 31.373 23.2334 31.4608 23.0771 31.6171C22.9208 31.7734 22.833 31.9854 22.833 32.2064C22.833 32.4274 22.9208 32.6394 23.0771 32.7956C23.2334 32.9519 23.4453 33.0397 23.6663 33.0397Z" fill="#009AAD"/>
<path d="M2.83333 10.5404C3.05435 10.5404 3.26631 10.4526 3.42259 10.2963C3.57887 10.14 3.66667 9.92805 3.66667 9.70703V4.70703C3.66667 4.48602 3.75446 4.27406 3.91074 4.11778C4.06702 3.9615 4.27899 3.8737 4.5 3.8737H9.5C9.72101 3.8737 9.93298 3.7859 10.0893 3.62962C10.2455 3.47334 10.3333 3.26138 10.3333 3.04036C10.3333 2.81935 10.2455 2.60739 10.0893 2.45111C9.93298 2.29483 9.72101 2.20703 9.5 2.20703H4.5C3.83696 2.20703 3.20107 2.47042 2.73223 2.93926C2.26339 3.40811 2 4.04399 2 4.70703L2 9.70703C2 9.92805 2.0878 10.14 2.24408 10.2963C2.40036 10.4526 2.61232 10.5404 2.83333 10.5404Z" fill="#009AAD"/>
<path d="M9.5 50.5397H4.5C4.27899 50.5397 4.06702 50.4519 3.91074 50.2956C3.75446 50.1394 3.66667 49.9274 3.66667 49.7064V44.7064C3.66667 44.4854 3.57887 44.2734 3.42259 44.1171C3.26631 43.9608 3.05435 43.873 2.83333 43.873C2.61232 43.873 2.40036 43.9608 2.24408 44.1171C2.0878 44.2734 2 44.4854 2 44.7064V49.7064C2 50.3694 2.26339 51.0053 2.73223 51.4741C3.20107 51.943 3.83696 52.2064 4.5 52.2064H9.5C9.72101 52.2064 9.93298 52.1186 10.0893 51.9623C10.2455 51.806 10.3333 51.5941 10.3333 51.373C10.3333 51.152 10.2455 50.9401 10.0893 50.7838C9.93298 50.6275 9.72101 50.5397 9.5 50.5397Z" fill="#009AAD"/>
<path d="M49.5003 2.20703H44.5003C44.2793 2.20703 44.0673 2.29483 43.9111 2.45111C43.7548 2.60739 43.667 2.81935 43.667 3.04036C43.667 3.26138 43.7548 3.47334 43.9111 3.62962C44.0673 3.7859 44.2793 3.8737 44.5003 3.8737H49.5003C49.7213 3.8737 49.9333 3.9615 50.0896 4.11778C50.2459 4.27406 50.3337 4.48602 50.3337 4.70703V9.70703C50.3337 9.92805 50.4215 10.14 50.5777 10.2963C50.734 10.4526 50.946 10.5404 51.167 10.5404C51.388 10.5404 51.6 10.4526 51.7562 10.2963C51.9125 10.14 52.0003 9.92805 52.0003 9.70703V4.70703C52.0003 4.04399 51.7369 3.40811 51.2681 2.93926C50.7993 2.47042 50.1634 2.20703 49.5003 2.20703Z" fill="#009AAD"/>
<path d="M51.167 43.873C50.946 43.873 50.734 43.9608 50.5777 44.1171C50.4215 44.2734 50.3337 44.4854 50.3337 44.7064V49.7064C50.3337 49.9274 50.2459 50.1394 50.0896 50.2956C49.9333 50.4519 49.7213 50.5397 49.5003 50.5397H44.5003C44.2793 50.5397 44.0673 50.6275 43.9111 50.7838C43.7548 50.9401 43.667 51.152 43.667 51.373C43.667 51.5941 43.7548 51.806 43.9111 51.9623C44.0673 52.1186 44.2793 52.2064 44.5003 52.2064H49.5003C50.1634 52.2064 50.7993 51.943 51.2681 51.4741C51.7369 51.0053 52.0003 50.3694 52.0003 49.7064V44.7064C52.0003 44.4854 51.9125 44.2734 51.7562 44.1171C51.6 43.9608 51.388 43.873 51.167 43.873Z" fill="#009AAD"/>
<path d="M51.1667 26.3737H48.6458C48.4296 20.923 46.1675 15.754 42.3103 11.8968C38.453 8.03954 33.284 5.7774 27.8333 5.5612V3.04036C27.8333 2.81935 27.7455 2.60739 27.5893 2.45111C27.433 2.29483 27.221 2.20703 27 2.20703C26.779 2.20703 26.567 2.29483 26.4107 2.45111C26.2545 2.60739 26.1667 2.81935 26.1667 3.04036V5.5612C20.716 5.7774 15.547 8.03954 11.6897 11.8968C7.83251 15.754 5.57037 20.923 5.35417 26.3737H2.83333C2.61232 26.3737 2.40036 26.4615 2.24408 26.6178C2.0878 26.7741 2 26.986 2 27.207C2 27.428 2.0878 27.64 2.24408 27.7963C2.40036 27.9526 2.61232 28.0404 2.83333 28.0404H5.35417C5.57037 33.491 7.83251 38.6601 11.6897 42.5173C15.547 46.3745 20.716 48.6367 26.1667 48.8529V51.3737C26.1667 51.5947 26.2545 51.8067 26.4107 51.963C26.567 52.1192 26.779 52.207 27 52.207C27.221 52.207 27.433 52.1192 27.5893 51.963C27.7455 51.8067 27.8333 51.5947 27.8333 51.3737V48.8529C33.284 48.6367 38.453 46.3745 42.3103 42.5173C46.1675 38.6601 48.4296 33.491 48.6458 28.0404H51.1667C51.3877 28.0404 51.5996 27.9526 51.7559 27.7963C51.9122 27.64 52 27.428 52 27.207C52 26.986 51.9122 26.7741 51.7559 26.6178C51.5996 26.4615 51.3877 26.3737 51.1667 26.3737ZM46.9792 26.3737H43.6242C43.4145 22.2536 41.6835 18.3578 38.7663 15.4407C35.8492 12.5236 31.9534 10.7926 27.8333 10.5829V7.22786C32.8421 7.44276 37.5881 9.52889 41.1331 13.0739C44.6781 16.6189 46.7643 21.3649 46.9792 26.3737ZM39.5 28.0404H41.9575C41.7494 31.7186 40.1946 35.1915 37.5895 37.7965C34.9844 40.4016 31.5116 41.9565 27.8333 42.1645V39.707C27.8333 39.486 27.7455 39.2741 27.5893 39.1178C27.433 38.9615 27.221 38.8737 27 38.8737C26.779 38.8737 26.567 38.9615 26.4107 39.1178C26.2545 39.2741 26.1667 39.486 26.1667 39.707V42.1645C22.4884 41.9565 19.0156 40.4016 16.4105 37.7965C13.8054 35.1915 12.2506 31.7186 12.0425 28.0404H14.5C14.721 28.0404 14.933 27.9526 15.0893 27.7963C15.2455 27.64 15.3333 27.428 15.3333 27.207C15.3333 26.986 15.2455 26.7741 15.0893 26.6178C14.933 26.4615 14.721 26.3737 14.5 26.3737H12.0425C12.2506 22.6955 13.8054 19.2226 16.4105 16.6175C19.0156 14.0125 22.4884 12.4576 26.1667 12.2495V14.707C26.1667 14.928 26.2545 15.14 26.4107 15.2963C26.567 15.4526 26.779 15.5404 27 15.5404C27.221 15.5404 27.433 15.4526 27.5893 15.2963C27.7455 15.14 27.8333 14.928 27.8333 14.707V12.2495C31.5116 12.4576 34.9844 14.0125 37.5895 16.6175C40.1946 19.2226 41.7494 22.6955 41.9575 26.3737H39.5C39.279 26.3737 39.067 26.4615 38.9107 26.6178C38.7545 26.7741 38.6667 26.986 38.6667 27.207C38.6667 27.428 38.7545 27.64 38.9107 27.7963C39.067 27.9526 39.279 28.0404 39.5 28.0404ZM26.1667 7.22786V10.5829C22.0465 10.7926 18.1508 12.5236 15.2337 15.4407C12.3165 18.3578 10.5855 22.2536 10.3758 26.3737H7.02083C7.23573 21.3649 9.32186 16.6189 12.8669 13.0739C16.4119 9.52889 21.1579 7.44276 26.1667 7.22786ZM7.02083 28.0404H10.3758C10.5855 32.1605 12.3165 36.0562 15.2337 38.9734C18.1508 41.8905 22.0465 43.6215 26.1667 43.8312V47.1862C21.1579 46.9713 16.4119 44.8852 12.8669 41.3401C9.32186 37.7951 7.23573 33.0492 7.02083 28.0404ZM27.8333 47.1862V43.8312C31.9534 43.6215 35.8492 41.8905 38.7663 38.9734C41.6835 36.0562 43.4145 32.1605 43.6242 28.0404H46.9792C46.7643 33.0492 44.6781 37.7951 41.1331 41.3401C37.5881 44.8852 32.8421 46.9713 27.8333 47.1862Z" fill="#373737"/>
</g>
<defs>
<clipPath id="clip0_4366_63">
<rect width="50" height="50" fill="white" transform="translate(2 2.20703)"/>
</clipPath>
</defs>
</svg>
