<svg width="54" height="55" viewBox="0 0 54 55" fill="none" xmlns="http://www.w3.org/2000/svg">
<g clip-path="url(#clip0_4366_7)">
<path d="M35.6133 33.2363C35.0848 33.2363 34.6562 33.6648 34.6562 34.1934V40.7969C34.6562 43.4354 32.5096 45.582 29.8711 45.582H19.5382C19.0098 45.582 18.5816 46.0101 18.5812 46.5384L18.5798 48.4412L16.2956 46.157C16.1477 45.8176 15.8093 45.582 15.4179 45.582H9.19922C6.56068 45.582 4.41406 43.4354 4.41406 40.7969V26.0586C4.41406 23.4201 6.56068 21.2734 9.19922 21.2734H18.8652C19.3937 21.2734 19.8223 20.845 19.8223 20.3164C19.8223 19.7878 19.3937 19.3594 18.8652 19.3594H9.19922C5.50527 19.3594 2.5 22.3646 2.5 26.0586V40.7969C2.5 44.4908 5.50527 47.4961 9.19922 47.4961H14.9278L18.8584 51.4267C19.0415 51.6098 19.2862 51.707 19.5353 51.707C19.6585 51.707 19.7828 51.6832 19.901 51.6343C20.2587 51.4863 20.4919 51.1376 20.4922 50.7507L20.4945 47.4961H29.8711C33.565 47.4961 36.5703 44.4908 36.5703 40.7969V34.1934C36.5703 33.6648 36.1418 33.2363 35.6133 33.2363Z" fill="#002226"/>
<path d="M37.59 2.70703H35.1679C27.4978 2.70703 21.2578 8.94707 21.2578 16.6171C21.2578 24.2871 27.4978 30.5271 35.1678 30.5271H37.5899C38.7871 30.5271 39.972 30.375 41.1204 30.0745L44.6985 33.6505C44.8816 33.8334 45.1262 33.9306 45.3752 33.9306C45.4986 33.9306 45.623 33.9068 45.7414 33.8577C46.0989 33.7096 46.332 33.3606 46.332 32.9736V27.4366C47.8469 26.2098 49.1053 24.6601 49.9885 22.9288C50.9915 20.9625 51.5 18.8389 51.5 16.6171C51.5 8.94707 45.26 2.70703 37.59 2.70703ZM44.7992 26.2055C44.5592 26.3863 44.418 26.6694 44.418 26.97V30.6641L42.076 28.3234C41.8938 28.1414 41.6494 28.0433 41.3994 28.0433C41.3056 28.0433 41.2109 28.0572 41.1184 28.0856C39.9793 28.4357 38.7922 28.6131 37.59 28.6131H35.1679C28.5532 28.6131 23.1719 23.2317 23.1719 16.6171C23.1719 10.0025 28.5533 4.62109 35.1679 4.62109H37.59C44.2046 4.62109 49.5859 10.0025 49.5859 16.6171C49.5859 20.4195 47.8413 23.9144 44.7992 26.2055Z" fill="#002226"/>
<path d="M40.6884 13.1788C40.5503 11.1752 38.9353 9.56015 36.9316 9.42205C35.7958 9.34405 34.7119 9.72715 33.8822 10.5017C33.064 11.2655 32.5947 12.3452 32.5947 13.4641C32.5947 13.9926 33.0233 14.4211 33.5518 14.4211C34.0802 14.4211 34.5088 13.9926 34.5088 13.4641C34.5088 12.8651 34.7502 12.3099 35.1883 11.9009C35.626 11.4924 36.1981 11.2902 36.8001 11.3317C37.8555 11.4044 38.7062 12.2551 38.779 13.3105C38.8525 14.3763 38.1532 15.3182 37.1163 15.5502C36.2762 15.7382 35.6896 16.4682 35.6896 17.3254V19.6247C35.6896 20.1532 36.1181 20.5817 36.6466 20.5817C37.1752 20.5817 37.6036 20.1532 37.6035 19.6247V17.4019C39.532 16.936 40.8258 15.1714 40.6884 13.1788Z" fill="#009AAD"/>
<path d="M37.3231 22.7335C37.1451 22.5555 36.8982 22.4531 36.6465 22.4531C36.3948 22.4531 36.1479 22.5555 35.9699 22.7335C35.7919 22.9115 35.6895 23.1585 35.6895 23.4102C35.6895 23.6628 35.792 23.9097 35.9699 24.0877C36.1479 24.2657 36.3948 24.3672 36.6465 24.3672C36.8982 24.3672 37.1451 24.2657 37.3231 24.0877C37.5011 23.9088 37.6035 23.6628 37.6035 23.4102C37.6035 23.1585 37.501 22.9115 37.3231 22.7335Z" fill="#009AAD"/>
<path d="M28.8184 32.375H8.625C8.09653 32.375 7.66797 32.8035 7.66797 33.332C7.66797 33.8606 8.09653 34.2891 8.625 34.2891H28.8184C29.3469 34.2891 29.7754 33.8606 29.7754 33.332C29.7754 32.8035 29.3468 32.375 28.8184 32.375Z" fill="#009AAD"/>
<path d="M29.4949 38.0148C29.317 37.8368 29.0701 37.7344 28.8184 37.7344C28.5667 37.7344 28.3197 37.8368 28.1417 38.0148C27.9636 38.1928 27.8613 38.4397 27.8613 38.6914C27.8613 38.9431 27.9637 39.19 28.1417 39.368C28.3197 39.546 28.5667 39.6484 28.8184 39.6484C29.0701 39.6484 29.317 39.546 29.4949 39.368C29.673 39.19 29.7754 38.9441 29.7754 38.6914C29.7754 38.4397 29.6729 38.1928 29.4949 38.0148Z" fill="#009AAD"/>
<path d="M25.0541 37.7344H8.625C8.09653 37.7344 7.66797 38.1628 7.66797 38.6914C7.66797 39.22 8.09653 39.6484 8.625 39.6484H25.0541C25.5826 39.6484 26.0111 39.22 26.0111 38.6914C26.0111 38.1628 25.5825 37.7344 25.0541 37.7344Z" fill="#009AAD"/>
<path d="M22.5977 27.0156H8.625C8.09653 27.0156 7.66797 27.4441 7.66797 27.9727C7.66797 28.5012 8.09653 28.9297 8.625 28.9297H22.5977C23.1262 28.9297 23.5547 28.5012 23.5547 27.9727C23.5547 27.4441 23.1261 27.0156 22.5977 27.0156Z" fill="#009AAD"/>
</g>
<defs>
<clipPath id="clip0_4366_7">
<rect width="49" height="49" fill="white" transform="translate(2.5 2.70703)"/>
</clipPath>
</defs>
</svg>
