<svg width="54" height="55" viewBox="0 0 54 55" fill="none" xmlns="http://www.w3.org/2000/svg">
<path d="M22.8392 25.8737C27.8461 25.8737 31.905 21.815 31.905 16.8081C31.905 11.8012 27.8461 7.74219 22.8392 7.74219C17.8323 7.74219 13.7734 11.8012 13.7734 16.8081C13.7734 21.815 17.8323 25.8737 22.8392 25.8737Z" stroke="#002226" stroke-width="1.8" stroke-linejoin="round"/>
<path d="M33.2345 46.1414C30.4964 47.0131 26.8469 47.5831 22.8396 47.5831C14.3414 47.5831 7.45215 45.0185 7.45215 42.4539C7.45214 33.9556 14.3414 27.0664 22.8396 27.0664C26.7359 27.0664 30.294 28.5146 33.005 30.902" stroke="#002226" stroke-width="1.8" stroke-linejoin="round"/>
<path d="M31.4571 14.0411C32.5619 13.289 33.8964 12.8496 35.3337 12.8496C39.143 12.8496 42.231 15.9375 42.231 19.7468C42.231 23.5562 39.143 26.6441 35.3337 26.6441C32.6388 26.6441 30.3048 25.0985 29.1699 22.8454" stroke="#002226" stroke-width="1.8" stroke-linejoin="round"/>
<path d="M37.9893 46.9981C42.908 46.9981 46.8955 43.0106 46.8955 38.0918C46.8955 33.1731 42.908 29.1855 37.9893 29.1855C33.0705 29.1855 29.083 33.1731 29.083 38.0918C29.083 43.0106 33.0705 46.9981 37.9893 46.9981Z" stroke="#009AAD" stroke-width="1.8" stroke-linejoin="round"/>
<path d="M42.2233 35.2188L37.1077 40.6262L34.3291 37.9976" stroke="#009AAD" stroke-width="1.8"/>
</svg>
