<svg width="54" height="55" viewBox="0 0 54 55" fill="none" xmlns="http://www.w3.org/2000/svg">
<path d="M25.721 26.2675L16.9816 27.6765C16.7084 27.7205 16.483 27.9143 16.3987 28.178C16.3142 28.4416 16.3853 28.7302 16.5823 28.9247L18.402 30.7216C15.4201 35.4867 9.84085 38.5556 3.89731 41.5276C3.58115 41.6857 3.42251 42.0464 3.5195 42.3864C3.61009 42.7043 3.90056 42.9195 4.22546 42.9195C4.24811 42.9195 4.27086 42.9186 4.29371 42.9165C11.165 42.281 17.3086 41.2286 22.6704 34.9366L24.0648 36.3134C24.2621 36.5085 24.5527 36.5756 24.8156 36.487C25.0788 36.3985 25.2693 36.1691 25.3086 35.8945L26.5655 27.0969C26.5986 26.8657 26.5194 26.6325 26.3528 26.4688C26.1861 26.3051 25.9525 26.2295 25.721 26.2675ZM24.0599 34.2433L23.1315 33.3265C22.9833 33.1801 22.7813 33.103 22.5722 33.1157C22.3644 33.1279 22.1716 33.2277 22.0416 33.3903C17.953 38.4992 13.3005 40.1913 8.15451 40.9838C13.0894 38.3215 17.4592 35.3316 19.9661 30.9707C20.1325 30.6813 20.0829 30.3162 19.8454 30.0817L18.6455 28.8967L24.9693 27.8772L24.0599 34.2433ZM39.1215 9.34891C41.0976 9.34891 42.7053 7.74127 42.7053 5.76537C42.7053 3.78927 41.0976 2.18164 39.1215 2.18164C37.1459 2.18164 35.5387 3.78927 35.5387 5.76537C35.5387 7.74127 37.146 9.34891 39.1215 9.34891ZM39.1215 3.65115C40.2872 3.65115 41.2357 4.59964 41.2357 5.76537C41.2357 6.93111 40.2873 7.8794 39.1215 7.8794C37.9562 7.8794 37.0082 6.93101 37.0082 5.76537C37.0082 4.59974 37.9562 3.65115 39.1215 3.65115ZM50.3691 12.1106C49.8654 10.8868 48.4602 10.3002 47.2359 10.8035C46.081 11.2785 44.8869 11.7403 43.7322 12.1867C43.3287 12.3427 42.9254 12.4986 42.5234 12.6554C42.4929 12.6298 42.4622 12.6038 42.4312 12.5777C41.2805 11.605 39.7045 10.273 38.3125 9.94863C36.6245 9.5562 34.3458 10.7867 32.3351 11.8729C31.8054 12.1592 31.305 12.4296 30.8983 12.62C30.4685 12.8213 29.8259 13.5071 28.3511 15.338C28.2407 15.4753 28.1491 15.5888 28.0846 15.6671C27.9009 15.89 27.6799 16.147 27.4437 16.4215C26.6966 17.2895 25.8498 18.2734 25.4201 19.0439C25.3979 19.0837 25.3796 19.1253 25.3652 19.1683C24.9812 20.3138 25.5138 21.5715 26.6039 22.0944C27.1842 22.3725 28.3511 22.6275 29.6553 21.1935L32.443 17.9769C32.3299 18.6796 32.2274 19.422 32.1707 20.1768C32.0873 21.2856 32.1028 22.3967 32.1178 23.4715C32.1361 24.7975 32.1536 26.0518 32.0019 27.303L28.9499 34.3897C28.6963 34.9782 28.6883 35.6314 28.9268 36.2297C29.1655 36.8277 29.6208 37.2961 30.2091 37.549C30.5182 37.6818 30.8403 37.7445 31.1575 37.7445C32.084 37.7445 32.9665 37.21 33.3478 36.3337L37.0103 28.9455C37.0236 28.9186 37.0354 28.891 37.0453 28.8627C37.2335 28.3272 37.2475 27.7254 37.2609 27.1434C37.2658 26.9294 37.2709 26.7117 37.286 26.5148C38.806 26.5366 40.1714 26.6064 41.4317 26.7261L42.4994 29.5363C42.9693 30.7726 44.3569 31.4011 45.5928 30.935C46.1939 30.7087 46.6709 30.2609 46.9356 29.6742C47.2002 29.0878 47.2206 28.4347 46.9928 27.8349C46.8891 27.5624 46.7716 27.1937 46.6469 26.8037C46.0215 24.8446 45.243 22.4064 43.5301 22.1436C42.2907 21.9493 40.9859 21.8544 39.8758 21.7983C39.8902 20.5489 39.9523 19.2429 40.1773 17.9612C40.2315 17.6525 40.2901 17.3677 40.3544 17.1048L40.5439 17.2618C41.2342 17.8338 42.1782 17.9736 42.9909 17.633C43.6008 17.3942 44.2133 17.1572 44.826 16.9201C46.22 16.3808 47.6615 15.8232 49.064 15.2443C49.6564 14.9998 50.1183 14.5398 50.3653 13.9488C50.612 13.3561 50.6133 12.7033 50.3691 12.1106ZM49.0088 13.3823C48.913 13.6117 48.7334 13.7903 48.5032 13.8853C47.1157 14.458 45.6821 15.0126 44.2955 15.5492C43.6809 15.7869 43.0667 16.0246 42.439 16.2707C42.1157 16.4056 41.7492 16.3516 41.4814 16.1298L40.4471 15.2728C40.2651 15.1224 40.0222 15.0684 39.7944 15.1273C39.5661 15.1863 39.3799 15.3514 39.294 15.5709C39.0623 16.1633 38.8777 16.8622 38.7296 17.707C38.4426 19.3415 38.4028 20.9766 38.4024 22.4997C38.4022 22.8938 38.7129 23.2179 39.1067 23.2341C40.303 23.2837 41.8611 23.3694 43.3049 23.5957C44.1198 23.7207 44.8811 26.1048 45.2468 27.2504C45.3776 27.66 45.5011 28.0471 45.6188 28.3564C45.7068 28.5883 45.6987 28.8415 45.596 29.0693C45.4928 29.2975 45.3079 29.4716 45.0748 29.5592C44.5951 29.7405 44.0558 29.4949 43.873 29.0137L42.6438 25.7791C42.5455 25.5203 42.3101 25.3388 42.0348 25.3095C40.4374 25.139 38.6852 25.0505 36.6786 25.0385C36.3569 25.0263 36.0797 25.2376 35.9783 25.5376C35.8168 26.0137 35.8039 26.5706 35.7916 27.1089C35.7811 27.5581 35.7703 28.022 35.671 28.3374L32.0156 35.7132C31.8107 36.1835 31.2605 36.4016 30.7892 36.1983C30.5616 36.1004 30.3848 35.9182 30.2918 35.685C30.199 35.4518 30.2015 35.1982 30.2996 34.9708L33.393 27.788C33.4199 27.7252 33.438 27.6589 33.4468 27.5911C33.6253 26.2028 33.6059 24.8038 33.587 23.4507C33.5726 22.4083 33.5574 21.3302 33.6359 20.2866C33.7193 19.1777 33.9138 18.0651 34.0853 17.0839C34.1427 16.7565 34.2021 16.4325 34.2738 16.1079C34.3377 15.8191 34.2225 15.5204 33.9812 15.3494C33.8544 15.2595 33.7056 15.2143 33.5565 15.2143C33.4223 15.2143 33.2878 15.251 33.1687 15.3249L32.9554 15.4548C32.6259 15.6533 32.3876 15.7966 32.0139 16.2281L28.5561 20.2177C27.8077 21.0413 27.3796 20.8364 27.2388 20.769C26.835 20.5754 26.6283 20.1217 26.7406 19.6945C27.1157 19.055 27.9127 18.1289 28.5574 17.38C28.8012 17.0965 29.0295 16.8313 29.2186 16.6015C29.2857 16.5202 29.3806 16.4023 29.4953 16.2599C30.6162 14.8683 31.3052 14.0878 31.5213 13.951C31.9662 13.7426 32.4848 13.4625 33.0336 13.166C34.6372 12.2997 36.8327 11.111 37.9786 11.38C39.0261 11.624 40.5042 12.8732 41.4824 13.6999C41.6351 13.829 41.7799 13.9515 41.915 14.0635C42.1208 14.2344 42.4031 14.2798 42.6523 14.1824C43.1872 13.9728 43.7242 13.7653 44.2618 13.5575C45.4238 13.108 46.6253 12.6435 47.7945 12.1627C48.2694 11.9682 48.8142 12.1952 49.0099 12.67C49.1049 12.8999 49.1043 13.1531 49.0088 13.3823ZM11.9997 45.6745H4.18402C3.77818 45.6745 3.44922 46.0033 3.44922 46.4093V51.4994C3.44922 51.9052 3.77808 52.2342 4.18402 52.2342H11.9998C12.4056 52.2342 12.7346 51.9053 12.7346 51.4994V46.4093C12.7345 46.0034 12.4056 45.6745 11.9997 45.6745ZM11.265 50.7646H4.91873V47.1441H11.265V50.7646ZM23.999 42.098H16.1832C15.7774 42.098 15.4484 42.4269 15.4484 42.8328V51.4994C15.4484 51.9052 15.7773 52.2342 16.1832 52.2342H23.999C24.4048 52.2342 24.7338 51.9053 24.7338 51.4994V42.8328C24.7338 42.4269 24.4048 42.098 23.999 42.098ZM23.2642 50.7646H16.9179V43.5675H23.2642V50.7646ZM35.9977 38.5768H28.1821C27.7763 38.5768 27.4473 38.9056 27.4473 39.3116V51.4994C27.4473 51.9052 27.7762 52.2342 28.1821 52.2342H35.9977C36.4035 52.2342 36.7325 51.9053 36.7325 51.4994V39.3115C36.7325 38.9056 36.4036 38.5768 35.9977 38.5768ZM35.263 50.7646H28.9169V40.0463H35.263V50.7646ZM47.997 32.0447H40.1816C39.7758 32.0447 39.4468 32.3735 39.4468 32.7795V51.4994C39.4468 51.9052 39.7757 52.2342 40.1816 52.2342H47.997C48.4028 52.2342 48.7318 51.9053 48.7318 51.4994V32.7794C48.7318 32.3735 48.4028 32.0447 47.997 32.0447ZM47.2622 50.7646H40.9163V33.5142H47.2622V50.7646Z" fill="#002226"/>
</svg>
