<svg width="54" height="55" viewBox="0 0 54 55" fill="none" xmlns="http://www.w3.org/2000/svg">
<g clip-path="url(#clip0_4366_93)">
<path d="M41.2764 29.7686V24.6474L37.9673 24.0171C37.731 23.2135 37.4158 22.4413 37.014 21.7165L38.9049 18.9274L35.2807 15.3032L32.4916 17.1941C31.751 16.7844 30.9789 16.4692 30.1831 16.2329L29.5528 12.9316H24.4316L23.8013 16.2407C22.9976 16.4771 22.2255 16.7922 21.5007 17.1941L18.7116 15.3032L15.0873 18.9274L16.9782 21.7165C16.5764 22.4413 16.2613 23.2135 16.0249 24.0171L12.7158 24.6474V29.7686L16.017 30.3989C16.2455 31.1947 16.5685 31.9668 16.9782 32.7074L15.0873 35.4965L18.7116 39.1207L21.5007 37.2298C22.2334 37.6316 22.9976 37.9547 23.8013 38.1832L24.4316 41.4922H29.5528L30.1831 38.191C30.9789 37.9625 31.751 37.6395 32.4916 37.2298L35.2807 39.1207L38.9049 35.4965L37.014 32.7074C37.4237 31.9668 37.7389 31.1947 37.9752 30.3989L41.2764 29.7686ZM36.8722 35.3074L35.0916 37.088L32.5546 35.3625L32.1213 35.6304C31.2389 36.1662 30.3013 36.5601 29.3243 36.7886L28.8279 36.9068L28.2528 39.9165H25.7395L25.1643 36.9068L24.6758 36.7886C23.6831 36.5444 22.7455 36.1583 21.8867 35.6304L21.4534 35.3625L18.9164 37.088L17.1358 35.3074L18.8613 32.7704L18.5934 32.3371C18.0576 31.4547 17.6637 30.5171 17.4352 29.5401L17.317 29.0438L14.3073 28.4686V25.9474L17.317 25.3722L17.4352 24.8838C17.6795 23.891 18.0655 22.9535 18.5934 22.0947L18.8613 21.6613L17.1358 19.1244L18.9164 17.3438L21.4534 19.0692L21.8867 18.8013C22.7455 18.2735 23.691 17.8874 24.6758 17.6432L25.1643 17.525L25.7395 14.5153H28.2528L28.8279 17.525L29.3243 17.6432C30.3013 17.8716 31.2389 18.2656 32.1213 18.8013L32.5546 19.0692L35.0916 17.3438L36.8722 19.1244L35.1467 21.6613L35.4146 22.0947C35.9425 22.9535 36.3286 23.8989 36.5728 24.8838L36.691 25.3722L39.7007 25.9474V28.4607L36.691 29.0359L36.5728 29.5322C36.3443 30.5092 35.9504 31.4468 35.4146 32.3292L35.1467 32.7625L36.8722 35.3074Z" fill="#009AAD"/>
<path d="M27.0002 21.7305C23.9748 21.7305 21.5166 24.1886 21.5166 27.2141C21.5166 30.2396 23.9748 32.6977 27.0002 32.6977C30.0257 32.6977 32.4839 30.2396 32.4839 27.2141C32.4839 24.1886 30.0257 21.7305 27.0002 21.7305ZM27.0002 31.1141C24.8493 31.1141 23.0924 29.365 23.0924 27.2062C23.0924 25.0474 24.8414 23.2983 27.0002 23.2983C29.1511 23.2983 30.9081 25.0474 30.9081 27.2062C30.9081 29.365 29.1511 31.1141 27.0002 31.1141Z" fill="#009AAD"/>
<path d="M3.33984 27.4201C3.33984 40.4753 13.9526 51.088 26.9998 51.088C28.1817 51.088 29.3556 51.0013 30.498 50.828L30.6635 51.734C30.7186 52.0256 30.9156 52.2619 31.1914 52.3643L31.6562 52.514L38.3926 47.448C38.6526 47.2589 38.7708 46.9516 38.7235 46.6365L38.6053 46.1165L30.4586 43.7528C30.175 43.674 29.8756 43.7371 29.655 43.934L29.3083 44.2807L29.6156 45.9825C28.7489 46.1007 27.8744 46.1637 26.9998 46.1637C16.6708 46.1637 8.26409 37.7571 8.26409 27.4201C8.26409 26.9159 8.28772 26.4037 8.32712 25.9074L6.75136 25.7813C6.71197 26.3171 6.68833 26.8686 6.68833 27.4201C6.68833 38.6237 15.8041 47.7395 26.9998 47.7395C28.2211 47.7395 29.458 47.6292 30.6714 47.4086L31.4514 47.2668L31.1441 45.5886L36.2653 47.0698L32.0029 50.2765L31.7744 48.9922L30.9944 49.134C29.7023 49.3783 28.3629 49.4965 27.0077 49.4965C14.8271 49.4965 4.92348 39.585 4.92348 27.4043C4.92348 26.9001 4.93924 26.388 4.97863 25.8837L3.40287 25.7734C3.3556 26.325 3.33984 26.8765 3.33984 27.4201Z" fill="#002226"/>
<path d="M5.49902 17.5233L6.93296 18.1851C7.37418 17.2239 7.89417 16.2785 8.47721 15.3882L7.15357 14.5215C6.53114 15.4827 5.97963 16.4912 5.49902 17.5233Z" fill="#002226"/>
<path d="M3.70996 23.2369L5.26208 23.5126C5.45117 22.4648 5.71117 21.4248 6.04996 20.4163L4.55299 19.9199C4.19057 20.9993 3.90693 22.1102 3.70996 23.2369Z" fill="#002226"/>
<path d="M9.89504 13.4425C10.2102 13.0565 10.549 12.6704 10.8956 12.3001L9.74534 11.2207C9.37504 11.6146 9.01262 12.0322 8.67383 12.4419L9.89504 13.4425Z" fill="#002226"/>
<path d="M12.3453 15.7355C12.6605 15.3416 12.9914 14.9555 13.338 14.5931L12.1877 13.5137C11.8174 13.9076 11.455 14.3252 11.1162 14.7506L12.3453 15.7355Z" fill="#002226"/>
<path d="M9.95829 19.6124C10.3207 18.8245 10.7383 18.0524 11.211 17.3197L9.88738 16.4688C9.37526 17.2645 8.92617 18.0997 8.53223 18.9506L9.95829 19.6124Z" fill="#002226"/>
<path d="M7.02734 23.6695L8.57946 23.961C8.73704 23.1101 8.95765 22.2592 9.2334 21.4398L7.73643 20.9355C7.44492 21.8258 7.20068 22.7477 7.02734 23.6695Z" fill="#002226"/>
<path d="M50.6603 27.4199C50.6603 14.3726 40.0475 3.75197 27.0003 3.75197C26.2045 3.75197 25.4087 3.79137 24.6287 3.87015L24.479 2.72773C24.4397 2.43621 24.2584 2.19197 23.9827 2.06591L23.5257 1.89258L16.5609 6.61197C16.293 6.79318 16.1512 7.10046 16.1984 7.42349L16.3009 7.95137L24.29 10.7089C24.5657 10.8035 24.873 10.7562 25.1015 10.5671L25.4639 10.2362L25.2669 8.73925C25.8421 8.68409 26.4172 8.66046 26.9924 8.66046C37.3215 8.66046 45.7281 17.0671 45.7281 27.3962C45.7281 27.7744 45.7203 28.1526 45.6966 28.5308L47.2724 28.6253C47.296 28.2156 47.3039 27.8059 47.3039 27.3962C47.3118 16.2162 38.2039 7.10046 27.0003 7.10046C26.0942 7.10046 25.1803 7.16349 24.2821 7.28167L23.51 7.38409L23.699 8.84167L18.6566 7.10046L23.0766 4.10652L23.2736 5.61924L24.0615 5.51682C25.0227 5.39076 26.0154 5.31985 27.0081 5.31985C39.1887 5.31985 49.0924 15.2314 49.0924 27.4041C49.0924 27.9162 49.0766 28.4283 49.0451 28.9247L50.6209 29.0271C50.6445 28.5071 50.6603 27.9635 50.6603 27.4199Z" fill="#002226"/>
<path d="M48.9977 36.1729L47.5323 35.5898C47.1935 36.4329 46.7995 37.268 46.3662 38.0638L47.745 38.828C48.2177 37.9692 48.6432 37.0711 48.9977 36.1729Z" fill="#002226"/>
<path d="M50.3609 31.2326L48.8088 30.9805C48.6669 31.8787 48.4621 32.7768 48.21 33.6514L49.7227 34.0926C49.9906 33.155 50.2033 32.1938 50.3609 31.2326Z" fill="#002226"/>
<path d="M46.5947 40.6949L45.2869 39.8125C45.0032 40.2301 44.7038 40.6477 44.3887 41.0416L45.6256 42.0107C45.9644 41.5852 46.2875 41.144 46.5947 40.6949Z" fill="#002226"/>
<path d="M41.7568 38.9706L42.9938 39.9397C43.2459 39.6166 43.4902 39.2857 43.7265 38.9548L42.4344 38.0566C42.2138 38.3718 41.9932 38.6712 41.7568 38.9706Z" fill="#002226"/>
<path d="M45.8302 35.085L44.3726 34.4941C44.1205 35.1166 43.829 35.739 43.498 36.3299L44.8847 37.0863C45.2314 36.4323 45.5544 35.7547 45.8302 35.085Z" fill="#002226"/>
<path d="M47.0354 30.8401L45.4833 30.5801C45.373 31.2498 45.2233 31.9195 45.0342 32.5655L46.5469 32.991C46.7439 32.2898 46.9093 31.5728 47.0354 30.8401Z" fill="#002226"/>
</g>
<defs>
<clipPath id="clip0_4366_93">
<rect width="52" height="52" fill="white" transform="translate(1 1.20703)"/>
</clipPath>
</defs>
</svg>
