<svg width="170" height="172" viewBox="0 0 170 172" fill="none" xmlns="http://www.w3.org/2000/svg"><path d="M82.8041 1.50679C84.2824 0.831071 86.007 0.831071 87.5469 1.50679L97.7715 5.99107C98.757 6.42107 99.8041 6.60536 100.79 6.54393L111.938 5.80679C113.601 5.68393 115.203 6.29821 116.373 7.40393L124.442 15.1439C125.181 15.8811 126.105 16.3725 127.152 16.6796L137.869 19.7511C139.471 20.1811 140.764 21.2868 141.503 22.7611L146.431 32.7739C146.862 33.6954 147.601 34.4939 148.402 35.1696L157.456 41.7425C158.811 42.7254 159.674 44.1996 159.797 45.8582L160.967 56.9154C161.09 57.9596 161.46 58.9425 162.014 59.8025L168.235 69.0782C169.159 70.4296 169.467 72.1496 169.036 73.7468L166.387 84.5582C166.141 85.6025 166.141 86.6468 166.387 87.6296L169.036 98.4411C169.406 100.038 169.159 101.697 168.235 103.11L162.014 112.385C161.46 113.245 161.09 114.228 160.967 115.272L159.797 126.33C159.612 127.988 158.75 129.463 157.456 130.445L148.402 137.018C147.54 137.633 146.862 138.431 146.431 139.414L141.503 149.427C140.764 150.901 139.471 152.007 137.869 152.437L127.152 155.508C126.166 155.815 125.243 156.307 124.442 157.044L116.373 164.784C115.203 165.951 113.601 166.504 111.938 166.381L100.79 165.644C99.7425 165.582 98.6954 165.767 97.7715 166.197L87.5469 170.681C86.0686 171.357 84.344 171.357 82.8041 170.681L72.5795 166.197C71.594 165.767 70.5469 165.582 69.5614 165.644L58.4128 166.381C56.7498 166.504 55.1483 165.89 53.978 164.784L45.9092 157.044C45.1701 156.307 44.2462 155.815 43.1991 155.508L32.4817 152.437C30.8802 152.007 29.5867 150.901 28.8476 149.427L23.9201 139.414C23.4889 138.492 22.7498 137.694 21.9491 137.018L12.8947 130.445C11.5396 129.463 10.6773 127.988 10.5541 126.33L9.38383 115.272C9.26065 114.228 8.89108 113.245 8.33673 112.385L1.99253 103.171C1.06862 101.82 0.760647 100.1 1.19181 98.5025L3.84036 87.6911C4.08673 86.6468 4.08673 85.6025 3.84036 84.6196L1.19181 73.8082C0.822241 72.2111 1.06862 70.5525 1.99253 69.1396L8.21354 59.8639C8.76789 59.0039 9.13746 58.0211 9.26065 56.9768L10.4309 45.9196C10.6157 44.2611 11.478 42.7868 12.7715 41.8039L21.8259 35.2311C22.6882 34.6168 23.3657 33.8182 23.7969 32.8354L28.7244 22.8225C29.4635 21.3482 30.757 20.2425 32.3585 19.8125L43.0759 16.7411C44.0614 16.4339 44.9853 15.9425 45.786 15.2054L53.8548 7.46536C55.0251 6.29821 56.6266 5.74536 58.2896 5.86821L69.4382 6.60536C70.4853 6.66679 71.5324 6.4825 72.4563 6.0525L82.8041 1.50679Z" stroke="#FE9501"/></svg>