<svg width="64" height="43" viewBox="0 0 64 43" fill="none" xmlns="http://www.w3.org/2000/svg">
<path d="M63 40.9911H58.8045V19.4992C58.8045 19.2328 58.6991 18.9774 58.5116 18.7891C58.3241 18.6008 58.0697 18.495 57.8045 18.495H52.7779C52.5127 18.495 52.2583 18.6008 52.0708 18.7891C51.8832 18.9774 51.7779 19.2328 51.7779 19.4992V23.5913H47.7513C47.486 23.5913 47.2317 23.6971 47.0441 23.8854C46.8566 24.0737 46.7513 24.3291 46.7513 24.5955V28.6876H42.725C42.4598 28.6876 42.2054 28.7934 42.0179 28.9817C41.8304 29.17 41.725 29.4254 41.725 29.6918V33.7839H37.698C37.4328 33.7839 37.1784 33.8897 36.9909 34.078C36.8034 34.2663 36.698 34.5217 36.698 34.7881V40.9916H32.5025C32.2373 40.9916 31.9829 41.0974 31.7954 41.2857C31.6079 41.4741 31.5025 41.7295 31.5025 41.9958C31.5025 42.2621 31.6079 42.5176 31.7954 42.7059C31.9829 42.8942 32.2373 43 32.5025 43H63C63.2652 43 63.5196 42.8942 63.7071 42.7059C63.8946 42.5176 64 42.2621 64 41.9958C64 41.7295 63.8946 41.4741 63.7071 41.2857C63.5196 41.0974 63.2652 40.9916 63 40.9916V40.9911ZM56.8045 20.5034V40.9911H53.7779V20.5034H56.8045ZM51.7779 25.5997V40.9911H48.7513V25.5994L51.7779 25.5997ZM46.7513 30.6959V40.9914H43.725V30.6957L46.7513 30.6959ZM38.698 35.7923H41.725V40.9916H38.698V35.7923ZM45.0111 0.979259C44.9069 0.885157 44.7841 0.814087 44.6507 0.770647C44.5174 0.727206 44.3764 0.712364 44.237 0.72708C42.4241 0.921654 40.7031 1.6274 39.2729 2.76275C37.8426 3.8981 36.7614 5.41671 36.1544 7.14306C35.5473 8.86941 35.4391 10.733 35.8422 12.5185C36.2454 14.304 37.1435 15.9385 38.4326 17.2331C39.7218 18.5277 41.3495 19.4295 43.1276 19.8343C44.9056 20.2392 46.7614 20.1305 48.4806 19.5208C50.1997 18.9112 51.7119 17.8255 52.8425 16.3892C53.9731 14.9529 54.6759 13.2247 54.8696 11.4042C54.8844 11.2642 54.8696 11.1226 54.8263 10.9887C54.7831 10.8548 54.7122 10.7315 54.6185 10.6269C54.5247 10.5222 54.41 10.4385 54.2819 10.3813C54.1538 10.324 54.0152 10.2944 53.875 10.2944H45.3423V1.72575C45.3423 1.58497 45.3128 1.44576 45.2557 1.31715C45.1987 1.18855 45.1153 1.07343 45.0111 0.979259ZM52.6823 12.3028C52.3434 13.6155 51.6652 14.8149 50.7163 15.7797C49.7673 16.7444 48.5813 17.4402 47.2784 17.7965C45.9755 18.1528 44.6019 18.1571 43.2968 17.8088C41.9918 17.4605 40.8015 16.7721 39.8467 15.8133C38.8918 14.8544 38.2062 13.6592 37.8594 12.3486C37.5126 11.0381 37.5168 9.65877 37.8716 8.35039C38.2264 7.04201 38.9193 5.85102 39.88 4.89806C40.8407 3.9451 42.0351 3.264 43.3423 2.92376V11.2986C43.3423 11.565 43.4476 11.8204 43.6351 12.0087C43.8227 12.197 44.077 12.3028 44.3423 12.3028H52.6823ZM55.5612 8.62107C55.3202 6.41922 54.3389 4.36569 52.7791 2.79938C51.2193 1.23306 49.1744 0.247577 46.9818 0.0055644C46.8423 -0.00923524 46.7014 0.00556732 46.568 0.0490123C46.4347 0.0924572 46.3119 0.163574 46.2077 0.257746C46.1035 0.351917 46.0202 0.46704 45.9631 0.595644C45.9061 0.724247 45.8766 0.863457 45.8766 1.00424V8.72676C45.8766 8.99309 45.982 9.24851 46.1695 9.43684C46.3571 9.62516 46.6114 9.73096 46.8766 9.73096H54.5669C54.7071 9.73095 54.8457 9.70134 54.9738 9.64405C55.1018 9.58675 55.2164 9.50306 55.3102 9.3984C55.404 9.29375 55.4748 9.17045 55.518 9.03654C55.5613 8.90262 55.576 8.76107 55.5612 8.62107ZM47.8766 7.72257V2.2045C49.1971 2.55333 50.4016 3.24801 51.367 4.21752C52.3325 5.18703 53.0243 6.39659 53.3716 7.72257H47.8766ZM0.661625 21.5375L1.23263 21.7438V37.8084C1.23335 38.3309 1.44035 38.8317 1.80823 39.2011C2.17611 39.5706 2.67486 39.7784 3.19513 39.7792H30.5139C31.0342 39.7786 31.5332 39.5708 31.9012 39.2014C32.2692 38.8319 32.4763 38.331 32.477 37.8084V21.7681L33.1174 21.5369C33.3111 21.467 33.4786 21.3387 33.597 21.1695C33.7155 21.0004 33.779 20.7987 33.779 20.592V14.7518C33.779 14.4855 33.6736 14.2301 33.4861 14.0417C33.2986 13.8534 33.0442 13.7476 32.779 13.7476H22.5125V12.5318C22.5117 11.8895 22.2573 11.2738 21.805 10.8196C21.3528 10.3655 20.7396 10.11 20.1 10.1092H13.61C12.9704 10.11 12.3572 10.3655 11.905 10.8196C11.4527 11.2738 11.1983 11.8895 11.1975 12.5318V13.7476H1C0.734784 13.7476 0.48043 13.8534 0.292893 14.0417C0.105357 14.2301 1.88344e-07 14.4855 1.88344e-07 14.7518V20.592C-0.000126201 20.7988 0.0633611 21.0007 0.181785 21.1699C0.300209 21.3392 0.46779 21.4676 0.661625 21.5375ZM30.4776 37.7714H3.23263V22.4654L13.3776 26.1295V27.8541C13.3776 28.1204 13.483 28.3758 13.6705 28.5641C13.8581 28.7525 14.1124 28.8583 14.3776 28.8583H19.4026C19.6678 28.8583 19.9222 28.7525 20.1097 28.5641C20.2973 28.3758 20.4026 28.1204 20.4026 27.8541V26.1294L30.4776 22.4905V37.7714ZM15.3776 26.8499V25.8115H18.4026V26.8499H15.3776ZM13.1973 12.5318C13.1987 12.4224 13.2427 12.3179 13.3197 12.2405C13.3968 12.1632 13.5008 12.1191 13.6097 12.1176H20.1C20.209 12.119 20.313 12.1631 20.3901 12.2405C20.4671 12.3179 20.511 12.4224 20.5125 12.5318V13.7476H13.1973V12.5318ZM2 15.756H31.7796V19.8858L20.1116 24.0996C20.0188 24.0055 19.9083 23.9308 19.7865 23.8798C19.6647 23.8289 19.5341 23.8027 19.4021 23.8029H14.3771C14.2452 23.8027 14.1145 23.8289 13.9927 23.8798C13.8709 23.9307 13.7603 24.0055 13.6675 24.0996L2 19.886V15.756ZM21.3106 33.9612H27.6856C27.9508 33.9612 28.2052 34.067 28.3927 34.2553C28.5803 34.4437 28.6856 34.6991 28.6856 34.9654C28.6856 35.2317 28.5803 35.4872 28.3927 35.6755C28.2052 35.8638 27.9508 35.9696 27.6856 35.9696H21.3106C21.0454 35.9696 20.7911 35.8638 20.6035 35.6755C20.416 35.4872 20.3106 35.2317 20.3106 34.9654C20.3106 34.6991 20.416 34.4437 20.6035 34.2553C20.7911 34.067 21.0454 33.9612 21.3106 33.9612Z" fill="white"/>
</svg>
