<svg width="47" height="52" viewBox="0 0 47 52" fill="none" xmlns="http://www.w3.org/2000/svg">
<path d="M45.7183 14.1569H36.2911C35.5833 14.1569 35.0094 14.7389 35.0094 15.4567V50.7C35.0094 51.4179 35.5833 51.9998 36.2911 51.9998H45.7183C46.4261 51.9998 47 51.4179 47 50.7V15.4567C47 14.7389 46.4263 14.1569 45.7183 14.1569ZM44.4365 49.4002H37.5729V16.7566H44.4365V49.4002ZM28.2137 24.1908H18.7864C18.0786 24.1908 17.5047 24.7728 17.5047 25.4906V50.7002C17.5047 51.418 18.0786 52 18.7864 52H28.2137C28.9216 52 29.4955 51.418 29.4955 50.7002V25.4906C29.4955 24.7728 28.9216 24.1908 28.2137 24.1908ZM26.932 49.4004H20.0682V26.7904H26.932V49.4004ZM10.7089 33.7998H1.28175C0.573904 33.7998 0 34.3818 0 35.0996V50.7C0 51.4179 0.573904 51.9998 1.28175 51.9998H10.7089C11.4167 51.9998 11.9906 51.4179 11.9906 50.7V35.0996C11.9906 34.3818 11.4167 33.7998 10.7089 33.7998ZM9.42711 49.4002H2.5635V36.3994H9.42711V49.4002ZM36.9722 1.69813C36.9339 0.98129 37.4758 0.368592 38.1827 0.329761L44.1374 0.0020463C44.5217 -0.0198879 44.8939 0.135439 45.1532 0.423347C45.4124 0.711091 45.5305 1.10168 45.4752 1.48724L44.6159 7.47155C44.523 8.11836 43.9752 8.58434 43.3493 8.58434C43.2877 8.58434 43.2256 8.57996 43.1629 8.57053C42.4624 8.4672 41.9773 7.80755 42.0792 7.0972L42.4173 4.74228C31.5123 14.4895 18.5266 22.0651 3.77908 27.2733C3.63953 27.3227 3.49741 27.3459 3.35754 27.3459C2.82738 27.3459 2.33134 27.0098 2.14709 26.4733C1.91429 25.7954 2.26742 25.0545 2.93601 24.8183C17.3672 19.7217 30.066 12.3164 40.7206 2.79338L38.3216 2.92531C37.6139 2.96414 37.0105 2.41498 36.9722 1.69813Z" fill="white"/>
</svg>
