<svg width="56" height="57" viewBox="0 0 56 57" fill="none" xmlns="http://www.w3.org/2000/svg">
<path d="M14.6777 26.2883C14.6777 24.789 13.4576 23.5688 11.9582 23.5688C10.4589 23.5688 9.23877 24.789 9.23877 26.2883C9.23877 27.7877 10.4589 29.0078 11.9582 29.0078C13.4576 29.0078 14.6777 27.7877 14.6777 26.2883ZM11.9582 27.1948C11.4588 27.1948 11.0517 26.7887 11.0517 26.2883C11.0517 25.7879 11.4588 25.3818 11.9582 25.3818C12.4577 25.3818 12.8647 25.7879 12.8647 26.2883C12.8647 26.7887 12.4577 27.1948 11.9582 27.1948Z" fill="white"/>
<path d="M22.8362 29.0078C24.3355 29.0078 25.5556 27.7877 25.5556 26.2883C25.5556 24.789 24.3355 23.5688 22.8362 23.5688C21.3368 23.5688 20.1167 24.789 20.1167 26.2883C20.1167 27.7877 21.3368 29.0078 22.8362 29.0078ZM22.8362 25.3818C23.3356 25.3818 23.7427 25.7879 23.7427 26.2883C23.7427 26.7887 23.3356 27.1948 22.8362 27.1948C22.3367 27.1948 21.9297 26.7887 21.9297 26.2883C21.9297 25.7879 22.3367 25.3818 22.8362 25.3818Z" fill="white"/>
<path d="M21.6557 32.9347L22.1842 30.8208H12.6099L13.1383 32.9347C13.6279 34.8928 15.3792 36.2597 17.397 36.2597C19.4149 36.2597 21.1662 34.8928 21.6557 32.9347ZM14.9359 32.6338H19.8582C19.5255 33.7089 18.5338 34.4468 17.397 34.4468C16.2603 34.4468 15.2686 33.7089 14.9359 32.6338Z" fill="white"/>
<path d="M41.8721 9.97144C41.8721 11.4708 43.0922 12.6909 44.5916 12.6909C46.0909 12.6909 47.311 11.4708 47.311 9.97144C47.311 9.91252 47.2974 9.85722 47.2938 9.7992L51.2941 8.08503L50.5798 6.4189L46.5822 8.13217C46.0845 7.59462 45.3802 7.25197 44.5916 7.25197C44.1728 7.25197 43.7812 7.3544 43.4267 7.52482L41.6065 5.70459L40.3247 6.98637L42.1449 8.8066C41.9745 9.16104 41.8721 9.55264 41.8721 9.97144ZM44.5916 9.06495C45.091 9.06495 45.498 9.47106 45.498 9.97144C45.498 10.4718 45.091 10.8779 44.5916 10.8779C44.0921 10.8779 43.6851 10.4718 43.6851 9.97144C43.6851 9.47106 44.0921 9.06495 44.5916 9.06495Z" fill="white"/>
<path d="M44.592 19.9428C50.0899 19.9428 54.5634 15.4692 54.5634 9.97139C54.5634 4.47353 50.0899 0 44.592 0C39.0941 0 34.6206 4.47353 34.6206 9.97139C34.6206 15.4692 39.0941 19.9428 44.592 19.9428ZM36.4871 9.0649C36.662 7.49395 37.2848 6.05898 38.2239 4.88507L39.464 6.12515L40.7458 4.84337L39.5057 3.6033C40.6796 2.66417 42.1146 2.04141 43.6855 1.86646V3.62596H45.4985V1.86646C47.0694 2.04141 48.5044 2.66417 49.6783 3.6033L48.4382 4.84337L49.72 6.12515L50.9601 4.88507C51.8992 6.05898 52.522 7.49395 52.6969 9.0649H50.9374V10.8779H52.6969C52.522 12.4488 51.8992 13.8838 50.9601 15.0577L49.72 13.8176L48.4382 15.0994L49.6783 16.3395C48.5044 17.2786 47.0694 17.9014 45.4985 18.0763V16.3168H43.6855V18.0763C42.1146 17.9014 40.6796 17.2786 39.5057 16.3395L40.7458 15.0994L39.464 13.8176L38.2239 15.0577C37.2848 13.8838 36.662 12.4488 36.4871 10.8779H38.2466V9.0649H36.4871Z" fill="white"/>
<path d="M56 26.1164L54.9385 24.647L38.8601 36.2591H25.881C26.4149 35.7044 26.8935 35.097 27.3114 34.4462H37.6273L55.6057 21.7553H45.4983V23.5683H49.8939L37.0526 32.6332H28.2723C28.5152 32.0521 28.7038 31.4439 28.8524 30.8202H30.9945C32.9942 30.8202 34.6204 29.194 34.6204 27.1942C34.6204 25.3368 33.2118 23.8194 31.4106 23.61L32.036 22.0454C32.5473 20.7654 32.8075 19.4175 32.8075 18.0387C32.8075 12.0912 27.9677 7.25146 22.0193 7.25146H12.7749C6.82656 7.25146 1.98681 12.0912 1.98681 18.0387C1.98681 19.4175 2.24697 20.7654 2.75823 22.0454L3.38371 23.61C1.58251 23.8194 0.173828 25.3368 0.173828 27.1942C0.173828 29.194 1.80007 30.8202 3.79979 30.8202H5.94182C6.86826 34.7199 9.73276 37.8682 13.4621 39.1953L13.0133 40.9892C7.48104 42.8747 3.79979 47.9918 3.79979 53.8813V56.2019H50.9373V29.7723L56 26.1164ZM24.9137 47.4026C24.1586 48.1586 23.7426 49.163 23.7426 50.2318V54.3889H18.6789L21.1201 51.9478L19.7903 46.6276L21.6785 47.5712L22.5415 43.2581C26.5781 45.2071 29.1815 49.2709 29.1815 53.8813V54.3889H25.5555V50.2318C25.5555 49.6471 25.7831 49.0978 26.1973 48.6844L24.9137 47.4026ZM16.2767 43.9643L14.4275 44.8889L14.0168 42.8339L16.2767 43.9643ZM23.6483 38.0721H26.462V43.7159C25.1304 42.5302 23.5522 41.592 21.78 40.9883L21.3313 39.1944C22.1499 38.9043 22.9249 38.5272 23.6483 38.0721ZM20.7783 42.8339L20.3677 44.8889L18.5185 43.9643L20.7783 42.8339ZM17.1388 45.5597L17.3971 45.431L17.6555 45.5597L19.1131 51.3912L17.3971 53.1072L15.6811 51.3912L17.1388 45.5597ZM28.275 45.693V38.0721H32.8075V54.3889H30.9945V53.8813C30.9945 50.8282 29.9982 47.9882 28.275 45.693ZM34.6204 38.0721H38.2464V54.3889H34.6204V38.0721ZM40.0594 37.6288L43.6853 35.01V54.3889H40.0594V37.6288ZM32.8075 27.1942C32.8075 28.1941 31.9943 29.0072 30.9945 29.0072H29.1353C29.1588 28.7072 29.1815 28.4071 29.1815 28.1007V25.3813H30.9945C31.9943 25.3813 32.8075 26.1944 32.8075 27.1942ZM3.79979 29.0072C2.79993 29.0072 1.98681 28.1941 1.98681 27.1942C1.98681 26.1944 2.79993 25.3813 3.79979 25.3813H5.61277V28.1007C5.61277 28.4071 5.63543 28.7072 5.659 29.0072H3.79979ZM5.63362 23.5683H5.31997L4.44158 21.3728C4.01553 20.3067 3.79979 19.1854 3.79979 18.0387C3.79979 13.0902 7.82551 9.06444 12.7749 9.06444H22.0193C26.9688 9.06444 30.9945 13.0902 30.9945 18.0387C30.9945 19.1854 30.7787 20.3067 30.3527 21.3728L29.4743 23.5683H29.1815V22.7896C29.1815 21.2712 28.4264 19.8616 27.1627 19.0186L27.0304 18.9298C27.2579 18.3904 27.3857 17.7985 27.3894 17.1784C27.3957 15.9819 26.9352 14.8551 26.0913 14.0066C25.2473 13.1582 24.1233 12.6904 22.9267 12.6904C21.431 12.6904 20.0423 13.4328 19.2137 14.6774L18.4568 15.8133L19.9652 16.8186L20.7221 15.6827C21.2144 14.9439 22.0384 14.5034 22.9267 14.5034C23.6374 14.5034 24.3055 14.7808 24.8059 15.2848C25.3072 15.7888 25.58 16.4569 25.5764 17.1676C25.5673 18.6977 24.3164 19.9423 22.7862 19.9423C21.6758 19.9423 20.5599 19.8317 19.4712 19.6142L12.6181 18.2436C12.2428 18.1683 11.8558 18.1293 11.4678 18.1293C8.38028 18.1293 5.84845 20.5343 5.63362 23.5683ZM7.42575 28.1007V23.9844C7.42575 21.7553 9.23873 19.9423 11.4678 19.9423C11.7352 19.9423 12.0008 19.9686 12.261 20.0212L19.1158 21.3918C20.3224 21.6329 21.557 21.7553 22.7862 21.7553C24.0399 21.7553 25.1803 21.2486 26.0124 20.43L26.1575 20.5261C26.9153 21.0319 27.3685 21.8786 27.3685 22.7896V28.1007C27.3685 33.5986 22.895 38.0721 17.3971 38.0721C11.8993 38.0721 7.42575 33.5986 7.42575 28.1007ZM17.3971 39.8851C18.145 39.8851 18.8738 39.8071 19.5827 39.6739L19.967 41.2122L17.3971 42.4976L14.8263 41.2122L15.2107 39.6739C15.9205 39.8071 16.6493 39.8851 17.3971 39.8851ZM5.61277 53.8813C5.61277 49.2709 8.21621 45.2071 12.2528 43.2581L13.1158 47.5712L15.004 46.6276L13.6742 51.9478L16.1154 54.3889H11.0517V50.2318C11.0517 49.163 10.6356 48.1586 9.88052 47.4026L8.59784 48.6844C9.0112 49.0978 9.23873 49.648 9.23873 50.2318V54.3889H5.61277V53.8813ZM49.1243 54.3889H45.4983V33.701L49.1243 31.0822V54.3889Z" fill="white"/>
</svg>
