<svg width="52" height="52" viewBox="0 0 52 52" fill="none" xmlns="http://www.w3.org/2000/svg">
<path d="M48.7498 52H24.9165C23.1247 52 21.6665 50.5418 21.6665 48.75C21.6665 48.1152 21.842 47.5172 22.1757 47.0188L34.0663 27.5578C34.6253 26.6045 35.6913 26 36.8332 26C37.975 26 39.041 26.6045 39.6087 27.5752L51.5145 47.0578C51.8243 47.5172 51.9998 48.1152 51.9998 48.75C51.9998 50.5418 50.5417 52 48.7498 52ZM36.8332 28.1667C36.4562 28.1667 36.1095 28.3595 35.9275 28.6715L24 48.1888C23.8808 48.3665 23.8332 48.5463 23.8332 48.75C23.8332 49.348 24.3207 49.8333 24.9165 49.8333H48.7498C49.3457 49.8333 49.8332 49.348 49.8332 48.75C49.8332 48.5463 49.7855 48.3665 49.6923 48.2278L37.7497 28.6888C37.5568 28.3595 37.2102 28.1667 36.8332 28.1667Z" fill="white"/>
<path d="M36.8333 43.3333C36.2353 43.3333 35.75 42.848 35.75 42.25V33.5833C35.75 32.9853 36.2353 32.5 36.8333 32.5C37.4313 32.5 37.9167 32.9853 37.9167 33.5833V42.25C37.9167 42.848 37.4313 43.3333 36.8333 43.3333Z" fill="white"/>
<path d="M36.8333 47.6667C37.4316 47.6667 37.9167 47.1816 37.9167 46.5833C37.9167 45.985 37.4316 45.5 36.8333 45.5C36.235 45.5 35.75 45.985 35.75 46.5833C35.75 47.1816 36.235 47.6667 36.8333 47.6667Z" fill="white"/>
<path d="M18.4167 45.5H5.41667C2.42883 45.5 0 43.069 0 40.0833V5.41667C0 2.431 2.42883 0 5.41667 0H29.25C32.2378 0 34.6667 2.431 34.6667 5.41667V20.5833C34.6667 21.1813 34.1813 21.6667 33.5833 21.6667C32.9853 21.6667 32.5 21.1813 32.5 20.5833V5.41667C32.5 3.62483 31.0418 2.16667 29.25 2.16667H5.41667C3.62483 2.16667 2.16667 3.62483 2.16667 5.41667V40.0833C2.16667 41.8752 3.62483 43.3333 5.41667 43.3333H18.4167C19.0147 43.3333 19.5 43.8187 19.5 44.4167C19.5 45.0147 19.0147 45.5 18.4167 45.5Z" fill="white"/>
<path d="M7.58339 28.1668C7.30605 28.1668 7.02872 28.0607 6.81639 27.8505C6.39389 27.428 6.39389 26.7412 6.81639 26.3187L12.2331 20.902C12.5602 20.5705 13.0672 20.4925 13.4832 20.6983L17.1189 22.5162L24.1497 15.4853C24.5722 15.0628 25.2591 15.0628 25.6816 15.4853C26.1041 15.9078 26.1041 16.5947 25.6816 17.0172L18.0982 24.6005C17.7711 24.9298 17.2641 25.0122 16.8481 24.8042L13.2124 22.9863L8.34822 27.8505C8.13805 28.0607 7.86072 28.1668 7.58339 28.1668Z" fill="white"/>
<path d="M24.9168 23.8332C24.3188 23.8332 23.8335 23.3478 23.8335 22.7498V17.3332H18.4168C17.8188 17.3332 17.3335 16.8478 17.3335 16.2498C17.3335 15.6518 17.8188 15.1665 18.4168 15.1665H24.9168C25.5148 15.1665 26.0002 15.6518 26.0002 16.2498V22.7498C26.0002 23.3478 25.5148 23.8332 24.9168 23.8332Z" fill="white"/>
</svg>
